<svg width="17" height="12" viewBox="0 0 17 12" fill="none" xmlns="http://www.w3.org/2000/svg">
<path id="Vector" d="M15.9966 -0.00303657C15.8234 0.00212418 15.6591 0.0745103 15.5383 0.198786L5.34299 10.3941L1.14768 6.19879C1.08625 6.1348 1.01267 6.08372 0.931251 6.04853C0.849832 6.01334 0.76221 5.99475 0.673517 5.99385C0.584823 5.99295 0.49684 6.00975 0.414722 6.04328C0.332604 6.0768 0.258001 6.12638 0.195282 6.1891C0.132562 6.25182 0.0829883 6.32642 0.0494622 6.40854C0.0159361 6.49066 -0.000867871 6.57864 3.45076e-05 6.66733C0.000936886 6.75602 0.0195275 6.84365 0.0547174 6.92507C0.0899073 7.00649 0.140989 7.08006 0.204971 7.14149L4.87164 11.8082C4.99667 11.9331 5.16621 12.0033 5.34299 12.0033C5.51977 12.0033 5.68932 11.9331 5.81435 11.8082L16.481 1.14149C16.5773 1.04785 16.6431 0.927292 16.6698 0.795613C16.6964 0.663933 16.6827 0.527277 16.6303 0.403553C16.5779 0.279829 16.4894 0.174809 16.3764 0.102257C16.2633 0.029704 16.1309 -0.00699681 15.9966 -0.00303657Z" fill="black"/>
</svg>
